<mxfile host="app.diagrams.net" agent="Mozilla/5.0 (Windows NT 10.0; Win64; x64) AppleWebKit/537.36 (KHTML, like Gecko) Chrome/140.0.0.0 Safari/537.36" version="28.2.0">
  <diagram name="Page-1" id="jIP4dOiP6p94lRPrlZd7">
    <mxGraphModel dx="786" dy="451" grid="1" gridSize="10" guides="1" tooltips="1" connect="1" arrows="1" fold="1" page="1" pageScale="1" pageWidth="827" pageHeight="1169" math="0" shadow="0">
      <root>
        <mxCell id="0" />
        <mxCell id="1" parent="0" />
        <mxCell id="5bTmeMOrhkgi-TwzCqEz-2" value="" style="rounded=1;whiteSpace=wrap;html=1;" vertex="1" parent="1">
          <mxGeometry x="350" y="120" width="200" height="140" as="geometry" />
        </mxCell>
        <mxCell id="5bTmeMOrhkgi-TwzCqEz-4" value="" style="rounded=1;whiteSpace=wrap;html=1;" vertex="1" parent="1">
          <mxGeometry x="40" y="120" width="200" height="140" as="geometry" />
        </mxCell>
        <mxCell id="5bTmeMOrhkgi-TwzCqEz-5" value="" style="rounded=1;whiteSpace=wrap;html=1;" vertex="1" parent="1">
          <mxGeometry x="600" y="120" width="200" height="140" as="geometry" />
        </mxCell>
        <mxCell id="5bTmeMOrhkgi-TwzCqEz-6" value="&lt;div&gt;&lt;span style=&quot;background-color: transparent; color: light-dark(rgb(0, 0, 0), rgb(255, 255, 255));&quot;&gt;Main Database&lt;/span&gt;&lt;/div&gt;" style="rounded=1;whiteSpace=wrap;html=1;" vertex="1" parent="1">
          <mxGeometry x="85" y="150" width="100" height="50" as="geometry" />
        </mxCell>
        <mxCell id="5bTmeMOrhkgi-TwzCqEz-7" value="HSE Database" style="rounded=1;whiteSpace=wrap;html=1;" vertex="1" parent="1">
          <mxGeometry x="85" y="205" width="100" height="50" as="geometry" />
        </mxCell>
        <mxCell id="5bTmeMOrhkgi-TwzCqEz-8" value="Centric System" style="text;html=1;align=center;verticalAlign=middle;whiteSpace=wrap;rounded=0;fontStyle=1" vertex="1" parent="1">
          <mxGeometry x="90" y="120" width="90" height="30" as="geometry" />
        </mxCell>
        <mxCell id="5bTmeMOrhkgi-TwzCqEz-9" value="" style="rounded=1;whiteSpace=wrap;html=1;" vertex="1" parent="1">
          <mxGeometry x="370" y="175" width="50" height="35" as="geometry" />
        </mxCell>
        <mxCell id="5bTmeMOrhkgi-TwzCqEz-10" value="VPN&lt;br&gt;Connection" style="rounded=1;whiteSpace=wrap;html=1;" vertex="1" parent="1">
          <mxGeometry x="254" y="180" width="70" height="30" as="geometry" />
        </mxCell>
        <mxCell id="5bTmeMOrhkgi-TwzCqEz-11" value="" style="rounded=1;whiteSpace=wrap;html=1;" vertex="1" parent="1">
          <mxGeometry x="450" y="125" width="80" height="40" as="geometry" />
        </mxCell>
        <mxCell id="5bTmeMOrhkgi-TwzCqEz-12" value="" style="rounded=1;whiteSpace=wrap;html=1;" vertex="1" parent="1">
          <mxGeometry x="450" y="171" width="80" height="40" as="geometry" />
        </mxCell>
        <mxCell id="5bTmeMOrhkgi-TwzCqEz-19" value="" style="edgeStyle=orthogonalEdgeStyle;rounded=0;orthogonalLoop=1;jettySize=auto;html=1;" edge="1" parent="1" source="5bTmeMOrhkgi-TwzCqEz-13" target="5bTmeMOrhkgi-TwzCqEz-16">
          <mxGeometry relative="1" as="geometry" />
        </mxCell>
        <mxCell id="5bTmeMOrhkgi-TwzCqEz-13" value="" style="rounded=1;whiteSpace=wrap;html=1;" vertex="1" parent="1">
          <mxGeometry x="450" y="217" width="80" height="40" as="geometry" />
        </mxCell>
        <mxCell id="5bTmeMOrhkgi-TwzCqEz-14" value="" style="rounded=1;whiteSpace=wrap;html=1;" vertex="1" parent="1">
          <mxGeometry x="610" y="126" width="80" height="40" as="geometry" />
        </mxCell>
        <mxCell id="5bTmeMOrhkgi-TwzCqEz-15" value="" style="rounded=1;whiteSpace=wrap;html=1;" vertex="1" parent="1">
          <mxGeometry x="610" y="172.5" width="80" height="40" as="geometry" />
        </mxCell>
        <mxCell id="5bTmeMOrhkgi-TwzCqEz-16" value="" style="rounded=1;whiteSpace=wrap;html=1;" vertex="1" parent="1">
          <mxGeometry x="610" y="217" width="80" height="40" as="geometry" />
        </mxCell>
        <mxCell id="5bTmeMOrhkgi-TwzCqEz-21" value="" style="edgeStyle=orthogonalEdgeStyle;rounded=0;orthogonalLoop=1;jettySize=auto;html=1;" edge="1" parent="1">
          <mxGeometry relative="1" as="geometry">
            <mxPoint x="530" y="190.5" as="sourcePoint" />
            <mxPoint x="610" y="190.5" as="targetPoint" />
          </mxGeometry>
        </mxCell>
        <mxCell id="5bTmeMOrhkgi-TwzCqEz-23" value="" style="edgeStyle=orthogonalEdgeStyle;rounded=0;orthogonalLoop=1;jettySize=auto;html=1;" edge="1" parent="1">
          <mxGeometry relative="1" as="geometry">
            <mxPoint x="531" y="146" as="sourcePoint" />
            <mxPoint x="611" y="146" as="targetPoint" />
          </mxGeometry>
        </mxCell>
      </root>
    </mxGraphModel>
  </diagram>
</mxfile>
